# xmcd
#
# Track frame offsets:
# 150
# 15097
# 27673
# 44970
# 58021
# 69726
# 87925
# 106603
# 119713
# 134779
# 150735
# 168629
# 186917
# 198670
# 213669
# 234838
#
# Disc length: 3368 seconds
#
#
# Revision: 0
# Processed by: cddbd v1.5PL3 Copyright (c) Steve Scherf et al.
# Submitted via: FreeRIP 2.60 
#
DISCID=f00d2610
DTITLE=Clarence - Instrumental Hits of Clarence
DYEAR=2002
DGENRE=Ethnic
TTITLE0=Duwa Ma Wagei
TTITLE1=Ran Samanalain
TTITLE2=Andura Ira
TTITLE3=Maniyani
TTITLE4=Malata Bambareku Se
TTITLE5=Sudu manike
TTITLE6=Kiri Muhuda
TTITLE7=Hiruge Lowe
TTITLE8=Sandak Basagiya
TTITLE9=Hada Wile
TTITLE10=Gamen Liumak
TTITLE11=Kanda Surinduni
TTITLE12=Randunuke Mala
TTITLE13=Duwanee
TTITLE14=Sihina Lowak
TTITLE15=Sandakeliye
EXTD=
EXTT0=Instrumental
EXTT1=Instrumental
EXTT2=Instrumental
EXTT3=Instrumental
EXTT4=Instrumental
EXTT5=Instrumental
EXTT6=Instrumental
EXTT7=Instrumental
EXTT8=Instrumental
EXTT9=Instrumental
EXTT10=Instrumental
EXTT11=Instrumental
EXTT12=Instrumental
EXTT13=Instrumental
EXTT14=Instrumental
EXTT15=Instrumental
PLAYORDER=
